<svg id="Layer_1" data-name="Layer 1" xmlns="http://www.w3.org/2000/svg" viewBox="0 0 374.45 44.49"><defs><style>.cls-1{fill:#bf3333;}</style></defs><title>company-name</title><circle class="cls-1" cx="5.22" cy="2.17" r="2.17"/><circle class="cls-1" cx="12.78" cy="2.17" r="2.17"/><circle class="cls-1" cx="136.33" cy="2.17" r="2.17"/><circle class="cls-1" cx="143.89" cy="2.17" r="2.17"/><g id="Text"><path class="cls-1" d="M5,42.19a8.51,8.51,0,0,1-2.44-6.35V16A8.54,8.54,0,0,1,5,9.67a8.66,8.66,0,0,1,6.38-2.41,8.67,8.67,0,0,1,6.38,2.41A8.57,8.57,0,0,1,20.17,16V35.84a8.55,8.55,0,0,1-2.43,6.35,8.67,8.67,0,0,1-6.38,2.41A8.66,8.66,0,0,1,5,42.19Zm8.82-3.71a3.72,3.72,0,0,0,.88-2.64V16a3.73,3.73,0,0,0-.88-2.65,3.2,3.2,0,0,0-2.44-.93,3.2,3.2,0,0,0-2.44.93A3.69,3.69,0,0,0,8,16V35.84a3.68,3.68,0,0,0,.88,2.64,3.17,3.17,0,0,0,2.44.94A3.17,3.17,0,0,0,13.8,38.48Z" transform="translate(-2.54 -0.11)"/><path class="cls-1" d="M43.31,7.78l-6,36.3H29.92l-6-36.3h5.6L33.66,36.3,37.81,7.78Z" transform="translate(-2.54 -0.11)"/><path class="cls-1" d="M47.56,7.78h5.5v36.3h-5.5Z" transform="translate(-2.54 -0.11)"/><path class="cls-1" d="M66.64,29.15l-2.07,4V44.08h-5.5V7.78h5.5V22.51L71.83,7.78h5.91L70,23.18l8.29,20.9H72.4Z" transform="translate(-2.54 -0.11)"/><path class="cls-1" d="M85.11,43.46A8,8,0,0,1,82,40.3a9.45,9.45,0,0,1-1.11-4.62V34.39l5.29-.58v1.35a4.81,4.81,0,0,0,.93,3.12,3.17,3.17,0,0,0,2.59,1.14,3.51,3.51,0,0,0,2.57-.94,3.38,3.38,0,0,0,1-2.54,6.28,6.28,0,0,0-1-3.37,27.38,27.38,0,0,0-4-4.46,32.22,32.22,0,0,1-5.53-6.38,10.87,10.87,0,0,1-1.47-5.55A9.2,9.2,0,0,1,83.4,9.67a8.94,8.94,0,0,1,12.24,0,9.32,9.32,0,0,1,2.23,6.53v.94l-5.29.57v-1a5.38,5.38,0,0,0-.78-3.16,2.56,2.56,0,0,0-2.23-1.09,2.81,2.81,0,0,0-2.23.88,3.8,3.8,0,0,0-.78,2.59,5.92,5.92,0,0,0,1,3.29,32.62,32.62,0,0,0,4,4.54,37.79,37.79,0,0,1,5.52,6.51,10.32,10.32,0,0,1,1.48,5.42,9.45,9.45,0,0,1-1.11,4.62,8,8,0,0,1-3.14,3.16,9.91,9.91,0,0,1-9.23,0Z" transform="translate(-2.54 -0.11)"/><path class="cls-1" d="M131.27,7.78l-6,36.3h-7.37l-6-36.3h5.6l4.15,28.52,4.15-28.52Z" transform="translate(-2.54 -0.11)"/><path class="cls-1" d="M145.22,36h-5.91l-1.2,8h-5.49l6-36.3H146l6,36.3h-5.6Zm-.73-5.29-2.23-15.19L140,30.75Z" transform="translate(-2.54 -0.11)"/><path class="cls-1" d="M167.88,19.09V16a3.69,3.69,0,0,0-.88-2.65,3.65,3.65,0,0,0-4.87,0,3.69,3.69,0,0,0-.89,2.65V35.84a3.68,3.68,0,0,0,.89,2.64,3.62,3.62,0,0,0,4.87,0,3.68,3.68,0,0,0,.88-2.64V29.41h-3.32V24.22h8.82V35.84a8.51,8.51,0,0,1-2.44,6.35,9.65,9.65,0,0,1-12.76,0,8.55,8.55,0,0,1-2.43-6.35V16a8.57,8.57,0,0,1,2.43-6.36,9.65,9.65,0,0,1,12.76,0A8.54,8.54,0,0,1,173.38,16v3.06Z" transform="translate(-2.54 -0.11)"/><path class="cls-1" d="M189.51,36H183.6l-1.19,8h-5.5l6-36.3h7.37l6,36.3h-5.6Zm-.72-5.29-2.24-15.19-2.23,15.19Z" transform="translate(-2.54 -0.11)"/><path class="cls-1" d="M203.57,43.46a8,8,0,0,1-3.14-3.16,9.35,9.35,0,0,1-1.12-4.62V34.39l5.29-.58v1.35a4.76,4.76,0,0,0,.94,3.12,3.15,3.15,0,0,0,2.59,1.14,3.51,3.51,0,0,0,2.57-.94,3.38,3.38,0,0,0,1-2.54,6.2,6.2,0,0,0-1-3.37,26.73,26.73,0,0,0-4-4.46,32.22,32.22,0,0,1-5.53-6.38,10.88,10.88,0,0,1-1.48-5.55,9.25,9.25,0,0,1,2.23-6.51A7.93,7.93,0,0,1,208,7.26a7.85,7.85,0,0,1,6.12,2.44,9.27,9.27,0,0,1,2.23,6.53v.94l-5.29.57v-1a5.46,5.46,0,0,0-.77-3.16A2.58,2.58,0,0,0,208,12.45a2.83,2.83,0,0,0-2.24.88,3.85,3.85,0,0,0-.77,2.59,5.91,5.91,0,0,0,1,3.29,33.57,33.57,0,0,0,4,4.54,37.79,37.79,0,0,1,5.52,6.51,10.32,10.32,0,0,1,1.48,5.42,9.35,9.35,0,0,1-1.12,4.62,7.93,7.93,0,0,1-3.13,3.16,9.91,9.91,0,0,1-9.23,0Z" transform="translate(-2.54 -0.11)"/><path class="cls-1" d="M224.73,43.46a8,8,0,0,1-3.14-3.16,9.35,9.35,0,0,1-1.12-4.62V34.39l5.29-.58v1.35a4.76,4.76,0,0,0,.94,3.12,3.15,3.15,0,0,0,2.59,1.14,3.51,3.51,0,0,0,2.57-.94,3.38,3.38,0,0,0,1-2.54,6.2,6.2,0,0,0-1-3.37,26.73,26.73,0,0,0-4-4.46,32.22,32.22,0,0,1-5.53-6.38,10.88,10.88,0,0,1-1.48-5.55A9.25,9.25,0,0,1,223,9.67a7.93,7.93,0,0,1,6.12-2.41,7.85,7.85,0,0,1,6.12,2.44,9.27,9.27,0,0,1,2.23,6.53v.94l-5.29.57v-1a5.46,5.46,0,0,0-.77-3.16,2.58,2.58,0,0,0-2.23-1.09,2.79,2.79,0,0,0-2.23.88,3.8,3.8,0,0,0-.78,2.59,5.91,5.91,0,0,0,1,3.29,33.57,33.57,0,0,0,4,4.54,37.79,37.79,0,0,1,5.52,6.51,10.32,10.32,0,0,1,1.48,5.42,9.35,9.35,0,0,1-1.12,4.62A7.93,7.93,0,0,1,234,43.46a9.91,9.91,0,0,1-9.23,0Z" transform="translate(-2.54 -0.11)"/><path class="cls-1" d="M242.88,7.78h5.5v36.3h-5.5Z" transform="translate(-2.54 -0.11)"/><path class="cls-1" d="M257.4,43.46a8,8,0,0,1-3.14-3.16,9.45,9.45,0,0,1-1.11-4.62V34.39l5.29-.58v1.35a4.81,4.81,0,0,0,.93,3.12A3.17,3.17,0,0,0,262,39.42a3.51,3.51,0,0,0,2.57-.94,3.38,3.38,0,0,0,1-2.54,6.28,6.28,0,0,0-1-3.37,27.38,27.38,0,0,0-4-4.46,32.22,32.22,0,0,1-5.53-6.38,10.87,10.87,0,0,1-1.47-5.55,9.2,9.2,0,0,1,2.23-6.51,8.94,8.94,0,0,1,12.24,0,9.32,9.32,0,0,1,2.23,6.53v.94l-5.29.57v-1a5.38,5.38,0,0,0-.78-3.16,2.56,2.56,0,0,0-2.23-1.09,2.81,2.81,0,0,0-2.23.88,3.8,3.8,0,0,0-.78,2.59,5.92,5.92,0,0,0,1,3.29,32.62,32.62,0,0,0,4,4.54,37.79,37.79,0,0,1,5.52,6.51,10.32,10.32,0,0,1,1.48,5.42,9.45,9.45,0,0,1-1.11,4.62,8,8,0,0,1-3.14,3.16,9.91,9.91,0,0,1-9.23,0Z" transform="translate(-2.54 -0.11)"/><path class="cls-1" d="M273.63,7.78h17.53V13h-6V44.08h-5.5V13h-6Z" transform="translate(-2.54 -0.11)"/><path class="cls-1" d="M304.08,36h-5.92l-1.19,8h-5.5l6-36.3h7.36l6,36.3h-5.6Zm-.73-5.29-2.23-15.19-2.23,15.19Z" transform="translate(-2.54 -0.11)"/><path class="cls-1" d="M315.12,7.78h6.07l7,24.38V7.78h5.4v36.3h-5.81l-7.26-23.23V44.08h-5.4Z" transform="translate(-2.54 -0.11)"/><path class="cls-1" d="M341.52,42.22A8.43,8.43,0,0,1,339.13,36V15.87a8.2,8.2,0,0,1,8.61-8.61A8.43,8.43,0,0,1,354,9.65a8.4,8.4,0,0,1,2.38,6.22v4.25H351V15.87a3.46,3.46,0,0,0-.88-2.49,3.27,3.27,0,0,0-4.57,0,3.5,3.5,0,0,0-.88,2.49V36a3.5,3.5,0,0,0,.88,2.49,3.25,3.25,0,0,0,4.57,0A3.46,3.46,0,0,0,351,36V30.81h5.39V36a8.81,8.81,0,0,1-14.83,6.23Z" transform="translate(-2.54 -0.11)"/><path class="cls-1" d="M361.38,7.78H377V13H366.88V23.08h8v5.19h-8V38.9H377v5.18H361.38Z" transform="translate(-2.54 -0.11)"/></g></svg>